<svg xmlns="http://www.w3.org/2000/svg" xmlns:xlink="http://www.w3.org/1999/xlink" width="500" zoomAndPan="magnify" viewBox="0 0 375 374.999991" height="500" preserveAspectRatio="xMidYMid meet" version="1.0"><defs><filter x="0%" y="0%" width="100%" height="100%" id="id1"><feColorMatrix values="0 0 0 0 1 0 0 0 0 1 0 0 0 0 1 0 0 0 1 0" color-interpolation-filters="sRGB"/></filter><g/><clipPath id="id2"><path d="M 84 73 L 295 73 L 295 260.507812 L 84 260.507812 Z M 84 73 " clip-rule="nonzero"/></clipPath><clipPath id="id3"><path d="M 85 79 L 295 79 L 295 260.507812 L 85 260.507812 Z M 85 79 " clip-rule="nonzero"/></clipPath><mask id="id4"><g filter="url(#id1)"><rect x="-37.5" width="450" fill="#000000" y="-37.499999" height="449.999989" fill-opacity="0.298"/></g></mask><clipPath id="id5"><path d="M 1 1 L 209.238281 1 L 209.238281 181.507812 L 1 181.507812 Z M 1 1 " clip-rule="nonzero"/></clipPath><clipPath id="id6"><rect x="0" width="210" y="0" height="182"/></clipPath><clipPath id="id7"><path d="M 85 98 L 259 98 L 259 260.507812 L 85 260.507812 Z M 85 98 " clip-rule="nonzero"/></clipPath><clipPath id="id8"><path d="M 81 71.507812 L 296.988281 71.507812 L 296.988281 260.507812 L 81 260.507812 Z M 81 71.507812 " clip-rule="nonzero"/></clipPath><clipPath id="id9"><path d="M 297 279 L 374 279 L 374 337.871094 L 297 337.871094 Z M 297 279 " clip-rule="nonzero"/></clipPath><clipPath id="id10"><path d="M 57 261.371094 L 317 261.371094 L 317 321 L 57 321 Z M 57 261.371094 " clip-rule="nonzero"/></clipPath><clipPath id="id11"><path d="M 1 279 L 78 279 L 78 337.871094 L 1 337.871094 Z M 1 279 " clip-rule="nonzero"/></clipPath><clipPath id="id12"><path d="M 234 184 L 320.792969 184 L 320.792969 241 L 234 241 Z M 234 184 " clip-rule="nonzero"/></clipPath><clipPath id="id13"><path d="M 292 203 L 320.792969 203 L 320.792969 222 L 292 222 Z M 292 203 " clip-rule="nonzero"/></clipPath><clipPath id="id14"><path d="M 110.1875 27 L 145 27 L 145 77 L 110.1875 77 Z M 110.1875 27 " clip-rule="nonzero"/></clipPath><clipPath id="id15"><path d="M 138 5.242188 L 264.6875 5.242188 L 264.6875 85 L 138 85 Z M 138 5.242188 " clip-rule="nonzero"/></clipPath><clipPath id="id16"><path d="M 140 62 L 234 62 L 234 116.992188 L 140 116.992188 Z M 140 62 " clip-rule="nonzero"/></clipPath></defs><g clip-path="url(#id2)"><path fill="#ffefaa" d="M 294.882812 245.753906 L 294.125 260.484375 L 240.632812 260.484375 L 241.582031 245.753906 Z M 282.601562 181.179688 C 282.601562 181.179688 283.964844 157.121094 263.785156 132.199219 C 268.410156 109.167969 262.207031 78.3125 256.320312 73.773438 C 245.203125 74.425781 221.980469 82.582031 209.082031 103.109375 C 196.023438 98.445312 177.59375 97.214844 159.007812 101.867188 C 159.007812 101.867188 137.003906 78.695312 111.207031 73.773438 C 98.6875 82.929688 102.609375 127.542969 102.480469 133.148438 C 93.753906 148.742188 60.75 196.40625 115 229.832031 C 107.792969 248.417969 104.921875 260.230469 104.921875 260.230469 L 238.671875 260.488281 C 238.671875 260.488281 241.148438 234.351562 243.800781 221.417969 C 246.457031 208.484375 248.929688 186.792969 254.605469 184.25 C 260.285156 181.710938 264.722656 187.738281 264.722656 187.738281 C 264.722656 187.738281 271.144531 171.949219 276.152344 186.027344 C 274.714844 180.699219 282.601562 181.179688 282.601562 181.179688 Z M 282.601562 181.179688 " fill-opacity="1" fill-rule="nonzero"/></g><path fill="#ffbd59" d="M 247.273438 201.242188 C 251.445312 180.128906 259.980469 182.222656 264.722656 187.738281 C 265.480469 181.269531 272.3125 179.179688 276.292969 184.3125 C 291.660156 169.097656 294.125 214.246094 294.125 214.246094 L 294.125 243.472656 C 294.125 243.472656 290.683594 254.695312 267.097656 254.695312 C 246.515625 254.695312 240.632812 245.5625 240.632812 245.5625 C 240.632812 245.5625 243.097656 222.359375 247.273438 201.242188 Z M 159.671875 102.140625 C 155.117188 95.308594 125.8125 71.507812 111.585938 73.796875 C 95.460938 92.4375 103.238281 133.148438 103.238281 133.148438 C 103.238281 133.148438 89.921875 151.007812 88.339844 168.261719 C 88.851562 180.988281 123.355469 203.277344 162.800781 170.167969 C 200.285156 138.699219 170.101562 100.238281 170.101562 100.238281 C 170.101562 100.238281 164.980469 100.601562 159.671875 102.140625 Z M 253.101562 84.832031 L 240.632812 110.191406 C 240.632812 110.191406 251.773438 119.449219 254.707031 127.4375 C 257.640625 119.832031 258.421875 100.429688 253.101562 84.832031 Z M 253.101562 84.832031 " fill-opacity="1" fill-rule="nonzero"/><g clip-path="url(#id3)"><g mask="url(#id4)"><g transform="matrix(1, 0, 0, 1, 85, 79)"><g clip-path="url(#id6)"><g clip-path="url(#id5)"><path fill="#ef5454" d="M 209.125 181.484375 C 209.125 181.484375 209.125 181.484375 186.078125 181.484375 C 204.003906 179.859375 206.1875 131.378906 206.1875 131.378906 Z M 39.988281 31.191406 C 39.988281 31.191406 30.125 10.648438 28.480469 5.832031 C 24.308594 15.976562 23.621094 41.339844 26.875 48.4375 C 33.273438 40.621094 39.988281 31.191406 39.988281 31.191406 Z M 153.777344 181.484375 C 155.886719 168.230469 158.785156 149.988281 161.117188 135.28125 C 161.105469 135.289062 161.09375 135.292969 161.082031 135.296875 L 163.46875 108.894531 C 163.316406 109.082031 163.125 109.335938 162.886719 109.675781 C 161.082031 112.296875 156.988281 119.84375 153.683594 137.777344 C 140.140625 141.820312 122.300781 144.605469 98.816406 144.765625 C 7.765625 144.136719 1.5625 104.097656 1.5625 104.097656 C 1.5625 104.097656 -0.0820312 109.496094 3.414062 118.316406 C 2.394531 117.453125 1.621094 116.769531 1.195312 116.347656 C 3.875 136.574219 30.125 152.171875 30.125 152.171875 L 19.921875 181.488281 C 19.921875 181.488281 30.632812 181.488281 42.265625 181.488281 C 49.347656 158.304688 57.90625 158.914062 57.90625 158.914062 C 75.730469 162.828125 92.84375 163.882812 98.816406 163.882812 C 104.789062 163.882812 121.90625 162.824219 139.730469 158.914062 C 139.730469 158.914062 144.109375 158.605469 149.191406 166.90625 C 147.34375 178.71875 146.75 181.476562 146.75 181.476562 Z M 123.597656 24.109375 L 134.09375 27.136719 C 134.09375 27.136719 138.015625 12.988281 155.148438 1.039062 C 143.199219 4.308594 130.300781 12.96875 123.597656 24.109375 Z M 41.65625 1.039062 C 58.789062 12.988281 62.707031 27.136719 62.707031 27.136719 L 73.207031 24.109375 C 66.503906 12.96875 53.605469 4.308594 41.65625 1.039062 Z M 105.746094 112.484375 C 105.746094 112.484375 97.148438 114.464844 89.8125 112.269531 C 90.824219 120.722656 103.21875 121.484375 105.746094 112.484375 Z M 105.746094 112.484375 " fill-opacity="1" fill-rule="nonzero"/></g></g></g></g></g><g clip-path="url(#id7)"><path fill="#ffefaa" d="M 104.554688 98.414062 C 104.554688 98.414062 102.632812 124.914062 111.660156 137.589844 C 102.101562 144.558594 85.710938 167.207031 86.175781 185.644531 C 82.566406 173.664062 87.742188 153.179688 102.035156 134.859375 C 100.582031 124.015625 102.035156 109.097656 104.554688 98.414062 Z M 244.171875 235.433594 C 249.292969 197.339844 258.042969 185.679688 258.042969 185.679688 C 243.644531 181.78125 242.847656 218.488281 244.171875 235.433594 Z M 96.441406 210.378906 C 96.441406 210.378906 114.050781 226.542969 124.863281 228.253906 C 120.5 233.769531 111.660156 260.488281 111.660156 260.488281 L 103.808594 260.488281 L 114.050781 230.539062 C 114.050781 230.539062 96.84375 221.992188 96.441406 210.378906 Z M 96.441406 210.378906 " fill-opacity="1" fill-rule="nonzero"/></g><g clip-path="url(#id8)"><path fill="#000000" d="M 296.96875 260.484375 C 294.550781 260.484375 291.375 260.484375 291.375 260.484375 C 291.328125 251.222656 292.953125 203.34375 288.109375 187.207031 C 285.542969 178.667969 277.550781 182.75 276.464844 189.859375 C 275.738281 186.292969 274.917969 182.453125 271.28125 182.832031 C 266.789062 183.300781 264.949219 191.261719 264.949219 191.261719 C 264.949219 191.261719 261.34375 185.460938 258.042969 185.679688 C 252.832031 186.023438 249.398438 193.699219 246.898438 210.046875 C 245.492188 219.238281 241.878906 260.484375 241.878906 260.484375 L 237.226562 260.484375 C 237.226562 260.484375 239.785156 232.054688 240.605469 225.894531 L 240.628906 225.71875 L 241.289062 220.917969 C 242.789062 210.363281 244.457031 200.789062 246.066406 194.734375 C 250.253906 178.972656 259.753906 177.3125 264.035156 184.882812 C 266.234375 176.765625 275.773438 175.414062 276.777344 182.554688 C 277.089844 181.0625 278.574219 179.269531 280.664062 178.519531 C 279.832031 166.347656 274.519531 151.664062 261.714844 134.097656 C 264.515625 128.199219 267.5 100.453125 255.746094 76.082031 C 249.804688 76.082031 229.886719 80.960938 210.667969 101.917969 C 213.933594 103.050781 217 104.4375 219.582031 106.136719 C 218.777344 106.167969 201.222656 101.167969 183.667969 101.167969 C 166.109375 101.167969 148.554688 106.167969 147.75 106.136719 C 150.332031 104.4375 153.402344 103.050781 156.664062 101.917969 C 137.445312 80.960938 117.527344 76.082031 111.585938 76.082031 C 99.832031 100.453125 102.816406 128.199219 105.617188 134.097656 C 59.234375 197.734375 111.117188 223.519531 118.507812 229.300781 C 114.335938 237.859375 106.652344 260.484375 106.652344 260.484375 L 101.5 260.484375 C 101.5 260.484375 106.484375 244.71875 112.554688 230.644531 C 66.25 203.34375 81.234375 158.636719 100.203125 134.859375 C 94.515625 101.191406 106.273438 72.277344 110.828125 71.507812 C 140.992188 77.292969 156.40625 95.316406 160.441406 100.734375 C 165.855469 99.210938 174.761719 96.988281 183.667969 96.984375 C 192.5625 96.984375 201.460938 99.207031 206.890625 100.734375 C 210.925781 95.316406 226.339844 77.292969 256.503906 71.507812 C 261.058594 72.277344 272.816406 101.191406 267.128906 134.859375 C 276.128906 146.140625 284.226562 162.136719 285.308594 178.75 C 286.867188 179.441406 288.515625 180.796875 290.128906 183.113281 C 293.148438 187.4375 293.605469 193.011719 295.027344 204.242188 C 296.339844 214.613281 296.96875 254.363281 296.96875 260.484375 Z M 253.101562 84.832031 C 253.101562 84.832031 244.453125 97.109375 238.09375 110.183594 C 242.359375 112.984375 251.125 122.113281 254.707031 127.4375 C 256.394531 124.394531 247.636719 111.492188 243.175781 108.988281 C 247.816406 104.042969 253.101562 84.832031 253.101562 84.832031 Z M 113.480469 84.832031 C 113.480469 84.832031 122.128906 97.109375 128.488281 110.183594 C 124.222656 112.984375 115.457031 122.113281 111.875 127.4375 C 110.1875 124.394531 118.949219 111.492188 123.410156 108.988281 C 118.765625 104.042969 113.480469 84.832031 113.480469 84.832031 Z M 137.613281 146.304688 C 127.957031 148.589844 121.414062 158.253906 119.421875 166.265625 C 119.117188 167.488281 119.769531 168.457031 121.125 168.796875 C 123.316406 169.347656 127.304688 168.226562 127.890625 165.867188 C 128.65625 162.789062 129.960938 159.996094 131.761719 157.566406 C 133.125 155.734375 135.777344 152.566406 138.28125 151.9375 C 140.292969 151.433594 142.21875 154.734375 143.253906 156.507812 L 143.496094 156.921875 C 145.269531 159.921875 146.699219 163.394531 147.75 167.25 C 148.121094 168.601562 149.441406 169.132812 150.90625 169.132812 C 151.519531 169.132812 152.15625 169.042969 152.757812 168.875 C 155.214844 168.203125 156.621094 166.597656 156.175781 164.976562 C 152.308594 150.804688 145.894531 144.347656 137.613281 146.304688 Z M 247.152344 164.976562 C 243.285156 150.804688 236.867188 144.347656 228.589844 146.304688 C 218.933594 148.589844 212.390625 158.253906 210.394531 166.265625 C 210.210938 167.007812 210.382812 167.683594 210.882812 168.164062 C 211.925781 169.175781 214.007812 169.039062 215.472656 168.617188 C 217.300781 168.09375 218.566406 167.066406 218.867188 165.867188 C 219.632812 162.789062 220.933594 159.996094 222.738281 157.566406 C 224.097656 155.734375 226.753906 152.566406 229.257812 151.9375 C 231.269531 151.4375 233.195312 154.734375 234.226562 156.507812 L 234.472656 156.921875 C 236.242188 159.917969 237.675781 163.394531 238.726562 167.25 C 238.960938 168.109375 239.640625 168.726562 240.644531 168.988281 C 241.027344 169.089844 241.449219 169.136719 241.882812 169.136719 C 243.511719 169.136719 245.371094 168.472656 246.398438 167.429688 C 247.117188 166.699219 247.386719 165.832031 247.152344 164.976562 Z M 197.289062 169.246094 C 196.265625 169.792969 195.777344 171.550781 196.78125 173.441406 C 197.363281 174.539062 196.742188 175.667969 196.320312 176.246094 C 195.214844 177.757812 193.226562 178.675781 191.703125 178.390625 C 189.074219 177.898438 187.492188 174.796875 186.40625 172.152344 C 185.902344 170.921875 184.835938 170.15625 183.632812 170.15625 C 182.425781 170.15625 181.363281 170.921875 180.855469 172.152344 C 179.964844 174.324219 178.308594 178.363281 175.5625 178.875 C 174.394531 179.097656 172.941406 178.527344 171.78125 177.410156 C 170.0625 175.675781 170.578125 173.414062 170.761719 172.800781 C 170.78125 172.753906 170.792969 172.707031 170.8125 172.640625 L 171.214844 171.574219 L 171.015625 171.574219 C 171.066406 170.457031 170.621094 169.5 169.824219 169.175781 C 169.140625 168.898438 168.132812 169.113281 167.371094 170.546875 C 165.953125 173.214844 165.875 176.390625 167.160156 179.039062 C 168.355469 181.496094 170.601562 183.1875 173.328125 183.671875 C 177.238281 184.371094 180.785156 182.710938 183.632812 178.878906 C 186.054688 182.140625 188.984375 183.828125 192.214844 183.828125 C 192.78125 183.828125 193.355469 183.773438 193.933594 183.671875 C 196.660156 183.1875 198.90625 181.496094 200.101562 179.039062 C 201.386719 176.390625 201.308594 173.214844 199.890625 170.546875 C 199.070312 169 197.976562 168.878906 197.289062 169.246094 Z M 197.289062 169.246094 " fill-opacity="1" fill-rule="nonzero"/></g><path fill="#ef5454" d="M 270.351562 207.582031 C 268.933594 205.984375 263.261719 201.648438 259.613281 208.722656 C 255.964844 215.800781 265.917969 222.875 270.351562 222.875 C 274.785156 222.875 284.734375 215.800781 281.089844 208.722656 C 277.441406 201.648438 271.769531 205.984375 270.351562 207.582031 Z M 273.832031 195.664062 C 273.832031 193.503906 272.597656 191.753906 271.078125 191.753906 C 269.558594 191.753906 268.324219 193.503906 268.324219 195.664062 C 268.324219 197.824219 269.558594 199.574219 271.078125 199.574219 C 272.597656 199.574219 273.832031 197.824219 273.832031 195.664062 Z M 282.363281 194.105469 C 280.820312 193.871094 279.277344 195.308594 278.917969 197.320312 C 278.554688 199.332031 279.511719 201.152344 281.054688 201.386719 C 282.597656 201.621094 284.140625 200.183594 284.5 198.171875 C 284.863281 196.160156 283.90625 194.339844 282.363281 194.105469 Z M 260.121094 201.582031 C 261.679688 201.128906 262.371094 199.136719 261.664062 197.125 C 260.960938 195.117188 259.125 193.855469 257.566406 194.308594 C 256.007812 194.761719 255.316406 196.757812 256.019531 198.765625 C 256.726562 200.773438 258.5625 202.035156 260.121094 201.582031 Z M 260.121094 201.582031 " fill-opacity="1" fill-rule="nonzero"/><g clip-path="url(#id9)"><path fill="#000000" d="M 321.695312 279.035156 L 321.695312 324.867188 L 297.257812 337.859375 L 373.941406 337.859375 L 357.988281 308.449219 L 373.941406 279.035156 L 321.695312 279.035156 " fill-opacity="1" fill-rule="nonzero"/></g><path fill="#000000" d="M 290.089844 325.363281 L 290.089844 335.949219 L 310.007812 325.363281 Z M 290.089844 325.363281 " fill-opacity="1" fill-rule="nonzero"/><g clip-path="url(#id10)"><path fill="#000000" d="M 316.660156 261.390625 L 57.707031 261.390625 L 57.707031 320.308594 L 316.660156 320.308594 L 316.660156 261.390625 " fill-opacity="1" fill-rule="nonzero"/></g><g clip-path="url(#id11)"><path fill="#000000" d="M 52.675781 325.363281 L 52.675781 279.035156 L 1.191406 279.046875 L 17.144531 308.449219 L 1.207031 337.875 L 77.855469 337.847656 L 52.675781 325.363281 " fill-opacity="1" fill-rule="nonzero"/></g><path fill="#000000" d="M 85.105469 335.941406 L 85.179688 325.363281 L 64.878906 325.363281 Z M 85.105469 335.941406 " fill-opacity="1" fill-rule="nonzero"/><g clip-path="url(#id12)"><path fill="#b28453" d="M 320.039062 212.804688 C 319.359375 209.335938 317.84375 206.28125 315.953125 203.632812 C 314.785156 202.019531 313.476562 200.550781 312.128906 199.242188 C 308.570312 195.78125 304.738281 193.40625 302.550781 192.109375 C 302.328125 191.972656 302.125 191.851562 301.945312 191.75 C 300.625 190.96875 298.324219 189.703125 295.265625 188.441406 C 292.753906 187.40625 289.730469 186.367188 286.316406 185.609375 C 281.464844 184.523438 275.820312 184 269.742188 184.820312 C 269.027344 184.917969 267.421875 185.183594 265.488281 185.683594 L 265.480469 185.683594 C 260.886719 186.863281 254.414062 189.339844 253.398438 193.929688 C 253.191406 194.890625 253.09375 196.265625 253.824219 198.246094 C 254.136719 199.085938 254.535156 199.894531 255.019531 200.667969 C 254.117188 200.777344 253.191406 200.917969 252.265625 201.085938 C 251.46875 201.230469 249.679688 201.609375 247.527344 202.261719 C 242.386719 203.820312 235.152344 206.949219 234.234375 212.199219 C 234.039062 213.289062 234.003906 214.855469 234.929688 217.058594 C 240.46875 230.308594 267.144531 235.667969 275.167969 237.199219 C 285.683594 239.21875 306.789062 243.25 310.542969 235.8125 C 310.871094 235.167969 311.390625 233.773438 310.542969 230.257812 C 309.683594 226.691406 308.046875 223.558594 306.03125 220.835938 C 312.359375 221.4375 318.003906 220.957031 319.824219 217.703125 C 320.136719 217.148438 320.652344 215.9375 320.039062 212.804688 Z M 320.039062 212.804688 " fill-opacity="1" fill-rule="nonzero"/></g><path fill="#f0b563" d="M 286.316406 185.609375 C 284.113281 185.902344 281.617188 186.296875 278.914062 186.839844 C 266.867188 189.277344 260.34375 192.722656 259.699219 191.53125 C 259.253906 190.703125 261.8125 188.023438 265.480469 185.683594 L 265.488281 185.683594 C 267.421875 185.183594 269.027344 184.917969 269.742188 184.820312 C 275.820312 184 281.464844 184.523438 286.316406 185.609375 Z M 286.316406 185.609375 " fill-opacity="1" fill-rule="nonzero"/><path fill="#f0b563" d="M 301.945312 191.75 C 302.125 191.851562 302.328125 191.972656 302.550781 192.109375 C 299.519531 192.382812 295.484375 192.875 290.816406 193.824219 C 278.765625 196.253906 272.246094 199.699219 271.601562 198.507812 C 270.988281 197.382812 275.980469 192.800781 281.761719 190.355469 C 287.164062 188.078125 292.191406 188.121094 295.265625 188.441406 C 298.324219 189.703125 300.625 190.96875 301.945312 191.75 Z M 301.945312 191.75 " fill-opacity="1" fill-rule="nonzero"/><path fill="#f0b563" d="M 315.953125 203.632812 L 315.945312 203.640625 C 313.964844 203.914062 311.765625 204.273438 309.410156 204.753906 C 301.242188 206.40625 295.617188 208.515625 292.636719 209.335938 C 291.898438 208.898438 291.21875 208.515625 290.605469 208.179688 C 291.925781 206.3125 295.910156 203.167969 300.359375 201.289062 C 304.84375 199.402344 309.0625 199.109375 312.128906 199.242188 C 313.476562 200.550781 314.785156 202.019531 315.953125 203.632812 Z M 315.953125 203.632812 " fill-opacity="1" fill-rule="nonzero"/><path fill="#f0b563" d="M 300.929688 215.308594 C 302.515625 216.722656 304.070312 218.316406 305.460938 220.09375 C 303.230469 220.503906 300.769531 221.019531 298.128906 221.671875 C 284.613281 225.023438 277.40625 229.242188 276.617188 227.925781 C 275.875 226.6875 281.296875 221.25 287.722656 218.207031 C 292.691406 215.847656 297.453125 215.300781 300.929688 215.308594 Z M 300.929688 215.308594 " fill-opacity="1" fill-rule="nonzero"/><path fill="#f0b563" d="M 289.035156 207.335938 C 289.25 207.449219 289.480469 207.574219 289.738281 207.714844 C 286.324219 208.171875 281.777344 208.933594 276.550781 210.234375 C 263.042969 213.574219 255.832031 217.796875 255.046875 216.480469 C 254.296875 215.238281 259.71875 209.800781 266.144531 206.761719 C 272.136719 203.917969 277.820312 203.71875 281.320312 203.925781 C 284.84375 205.207031 287.503906 206.523438 289.035156 207.335938 Z M 289.035156 207.335938 " fill-opacity="1" fill-rule="nonzero"/><path fill="#f0b563" d="M 271.070312 201.160156 C 268.589844 201.601562 265.78125 202.171875 262.742188 202.921875 C 249.234375 206.273438 242.027344 210.492188 241.242188 209.175781 C 240.691406 208.265625 243.464844 205.089844 247.527344 202.261719 C 249.679688 201.609375 251.46875 201.230469 252.265625 201.085938 C 253.191406 200.917969 254.117188 200.777344 255.019531 200.667969 C 260.832031 199.957031 266.273438 200.304688 271.070312 201.160156 Z M 271.070312 201.160156 " fill-opacity="1" fill-rule="nonzero"/><path fill="#b28453" d="M 310.542969 230.257812 C 311.390625 233.773438 310.871094 235.167969 310.542969 235.8125 C 306.789062 243.25 285.683594 239.21875 275.167969 237.199219 C 267.144531 235.667969 240.46875 230.308594 234.929688 217.058594 C 234.003906 214.855469 234.039062 213.289062 234.234375 212.199219 C 235.152344 206.949219 242.386719 203.820312 247.527344 202.261719 C 243.464844 205.089844 240.691406 208.265625 241.242188 209.175781 C 242.027344 210.492188 249.234375 206.273438 262.742188 202.921875 C 265.78125 202.171875 268.589844 201.601562 271.070312 201.160156 C 274.964844 201.851562 278.425781 202.875 281.320312 203.925781 C 277.820312 203.71875 272.136719 203.917969 266.144531 206.761719 C 259.71875 209.800781 254.296875 215.238281 255.046875 216.480469 C 255.832031 217.796875 263.042969 213.574219 276.550781 210.234375 C 281.777344 208.933594 286.324219 208.171875 289.738281 207.714844 L 289.742188 207.714844 C 290.007812 207.859375 290.300781 208.011719 290.605469 208.179688 C 291.21875 208.515625 291.898438 208.898438 292.636719 209.335938 C 295.054688 210.761719 298.050781 212.746094 300.929688 215.308594 C 297.453125 215.300781 292.691406 215.847656 287.722656 218.207031 C 281.296875 221.25 275.875 226.6875 276.617188 227.925781 C 277.40625 229.242188 284.613281 225.023438 298.128906 221.671875 C 300.769531 221.019531 303.230469 220.503906 305.460938 220.09375 C 305.65625 220.335938 305.84375 220.585938 306.03125 220.835938 C 308.046875 223.558594 309.683594 226.691406 310.542969 230.257812 Z M 310.542969 230.257812 " fill-opacity="1" fill-rule="nonzero"/><g clip-path="url(#id13)"><path fill="#8e6442" d="M 320.039062 212.804688 C 320.652344 215.9375 320.136719 217.148438 319.824219 217.703125 C 318.003906 220.957031 312.359375 221.4375 306.03125 220.835938 C 305.84375 220.585938 305.65625 220.335938 305.460938 220.09375 C 304.070312 218.316406 302.515625 216.722656 300.929688 215.308594 C 298.050781 212.746094 295.054688 210.761719 292.636719 209.335938 C 295.617188 208.515625 301.242188 206.40625 309.410156 204.753906 C 311.765625 204.273438 313.964844 203.914062 315.945312 203.640625 L 315.953125 203.632812 C 317.84375 206.28125 319.359375 209.335938 320.039062 212.804688 Z M 320.039062 212.804688 " fill-opacity="1" fill-rule="nonzero"/></g><path fill="#8e6442" d="M 289.742188 207.714844 L 289.738281 207.714844 C 289.480469 207.574219 289.25 207.449219 289.035156 207.335938 C 287.503906 206.523438 284.84375 205.207031 281.320312 203.925781 C 278.425781 202.875 274.964844 201.851562 271.070312 201.160156 C 266.273438 200.304688 260.832031 199.957031 255.019531 200.667969 C 254.535156 199.894531 254.136719 199.085938 253.824219 198.246094 C 253.09375 196.265625 253.191406 194.890625 253.398438 193.929688 C 254.414062 189.339844 260.886719 186.863281 265.480469 185.683594 C 261.8125 188.023438 259.253906 190.703125 259.699219 191.53125 C 260.34375 192.722656 266.867188 189.277344 278.914062 186.839844 C 281.617188 186.296875 284.113281 185.902344 286.316406 185.609375 C 289.730469 186.367188 292.753906 187.40625 295.265625 188.441406 C 292.191406 188.121094 287.164062 188.078125 281.761719 190.355469 C 275.980469 192.800781 270.988281 197.382812 271.601562 198.507812 C 272.246094 199.699219 278.765625 196.253906 290.816406 193.824219 C 295.484375 192.875 299.519531 192.382812 302.550781 192.109375 C 304.738281 193.40625 308.570312 195.78125 312.128906 199.242188 C 309.0625 199.109375 304.84375 199.402344 300.359375 201.289062 C 295.910156 203.167969 291.925781 206.3125 290.605469 208.179688 C 290.300781 208.011719 290.007812 207.859375 289.742188 207.714844 Z M 289.742188 207.714844 " fill-opacity="1" fill-rule="nonzero"/><path fill="#a0754d" d="M 310.542969 230.257812 C 309.683594 226.691406 308.046875 223.558594 306.03125 220.835938 C 306.03125 220.835938 313.398438 235.28125 291.007812 234.628906 C 245.28125 233.300781 234.234375 212.199219 234.234375 212.199219 C 234.039062 213.289062 234.003906 214.855469 234.929688 217.058594 C 240.46875 230.308594 267.144531 235.667969 275.167969 237.199219 C 285.683594 239.21875 306.789062 243.25 310.542969 235.8125 C 310.871094 235.167969 311.390625 233.773438 310.542969 230.257812 Z M 310.542969 230.257812 " fill-opacity="1" fill-rule="nonzero"/><g clip-path="url(#id14)"><path fill="#000000" d="M 144.488281 73.5 C 144.550781 73.714844 144.179688 74.070312 143.367188 74.484375 C 142.550781 74.90625 141.296875 75.386719 139.613281 75.730469 C 137.929688 76.070312 135.820312 76.277344 133.390625 76.078125 C 130.953125 75.875 128.207031 75.277344 125.402344 74.023438 C 123.347656 73.097656 121.277344 71.820312 119.363281 70.171875 C 117.441406 68.523438 115.664062 66.5 114.234375 64.121094 C 112.265625 60.871094 110.980469 57 110.710938 52.894531 C 110.636719 51.734375 110.640625 50.570312 110.734375 49.429688 C 111.074219 45.328125 112.472656 41.539062 114.464844 38.40625 C 116.464844 35.265625 119.046875 32.792969 121.777344 31.0625 C 124.59375 29.296875 127.492188 28.335938 130.09375 27.90625 C 132.683594 27.46875 134.980469 27.542969 136.8125 27.828125 C 138.652344 28.105469 140.027344 28.582031 140.914062 29.015625 C 141.636719 29.359375 142.042969 29.675781 142.132812 29.898438 C 142.148438 29.953125 142.160156 30.007812 142.140625 30.046875 C 142.074219 30.261719 141.535156 30.316406 140.605469 30.316406 C 139.671875 30.308594 138.34375 30.253906 136.6875 30.359375 C 135.035156 30.46875 133.046875 30.730469 130.882812 31.386719 C 128.730469 32.039062 126.398438 33.078125 124.246094 34.695312 C 122.140625 36.257812 120.179688 38.382812 118.671875 40.976562 C 117.164062 43.574219 116.117188 46.621094 115.902344 49.824219 C 115.832031 50.726562 115.832031 51.640625 115.886719 52.558594 C 116.105469 55.8125 117.078125 58.929688 118.570312 61.582031 C 119.65625 63.511719 121.023438 65.222656 122.523438 66.660156 C 124.03125 68.101562 125.660156 69.269531 127.300781 70.1875 C 129.535156 71.433594 131.8125 72.1875 133.882812 72.644531 C 135.957031 73.097656 137.828125 73.253906 139.378906 73.289062 C 140.933594 73.328125 142.179688 73.253906 143.042969 73.242188 C 143.820312 73.238281 144.289062 73.273438 144.441406 73.429688 C 144.464844 73.453125 144.480469 73.476562 144.488281 73.5 Z M 144.488281 73.5 " fill-opacity="1" fill-rule="nonzero"/></g><g clip-path="url(#id15)"><path fill="#000000" d="M 263.261719 65.160156 C 262.5 68.347656 261.191406 71.242188 259.554688 73.714844 C 257.925781 76.1875 255.960938 78.242188 253.863281 79.835938 C 251.882812 81.328125 249.796875 82.40625 247.78125 83.136719 C 245.757812 83.875 243.804688 84.277344 242.011719 84.445312 C 239.992188 84.632812 238.175781 84.515625 236.628906 84.277344 C 235.089844 84.03125 233.820312 83.660156 232.828125 83.289062 C 231.839844 82.921875 231.117188 82.542969 230.648438 82.261719 C 230.183594 81.96875 229.976562 81.757812 230.015625 81.652344 C 230.0625 81.550781 230.355469 81.566406 230.878906 81.652344 C 231.402344 81.746094 232.160156 81.90625 233.152344 82.066406 C 234.144531 82.230469 235.367188 82.382812 236.804688 82.421875 C 238.246094 82.457031 239.898438 82.382812 241.691406 82.042969 C 243.273438 81.75 244.972656 81.25 246.695312 80.464844 C 248.417969 79.6875 250.171875 78.632812 251.796875 77.242188 C 253.527344 75.777344 255.109375 73.921875 256.402344 71.726562 C 257.703125 69.535156 258.710938 67 259.261719 64.269531 C 259.738281 61.941406 259.871094 59.46875 259.652344 56.929688 C 259.429688 54.390625 258.847656 51.78125 257.902344 49.253906 C 256.6875 46.007812 254.824219 42.855469 252.402344 40.0625 C 249.988281 37.265625 246.988281 34.828125 243.574219 33.042969 C 240.226562 31.324219 236.492188 30.144531 232.605469 29.613281 C 228.722656 29.082031 224.6875 29.191406 220.800781 30.039062 C 220.75 29.96875 220.703125 29.898438 220.648438 29.832031 C 217.570312 25.578125 213.796875 21.914062 209.652344 18.953125 C 205.503906 15.996094 201.007812 13.746094 196.421875 12.269531 C 191.378906 10.652344 186.195312 10.042969 181.28125 10.238281 C 176.359375 10.429688 171.714844 11.414062 167.558594 12.960938 C 163.890625 14.316406 160.609375 16.128906 157.746094 18.136719 C 154.878906 20.136719 152.441406 22.324219 150.386719 24.507812 C 148.128906 26.914062 146.335938 29.316406 144.910156 31.507812 C 143.488281 33.703125 142.441406 35.695312 141.644531 37.351562 C 140.84375 39.007812 140.289062 40.324219 139.890625 41.207031 C 139.480469 42.09375 139.226562 42.554688 139.082031 42.519531 C 138.9375 42.480469 138.910156 41.949219 139.050781 40.972656 C 139.191406 39.976562 139.488281 38.542969 140.066406 36.71875 C 140.640625 34.902344 141.503906 32.710938 142.78125 30.269531 C 142.78125 30.261719 142.789062 30.261719 142.789062 30.253906 C 144.070312 27.820312 145.769531 25.132812 148.011719 22.417969 C 150.046875 19.953125 152.539062 17.445312 155.539062 15.132812 C 158.53125 12.816406 162.03125 10.691406 166.019531 9.042969 C 170.527344 7.179688 175.613281 5.933594 181.035156 5.59375 C 186.464844 5.242188 192.222656 5.800781 197.898438 7.519531 C 202.597656 8.933594 207.179688 11.207031 211.335938 14.285156 C 215.488281 17.367188 219.21875 21.261719 222.164062 25.84375 C 222.210938 25.917969 222.265625 25.988281 222.308594 26.066406 C 226.375 24.871094 230.585938 24.554688 234.613281 25.011719 C 238.644531 25.464844 242.5 26.6875 245.933594 28.566406 C 249.933594 30.722656 253.371094 33.609375 256.117188 36.898438 C 258.863281 40.195312 260.921875 43.878906 262.246094 47.675781 C 263.277344 50.640625 263.863281 53.675781 264.023438 56.621094 C 264.179688 59.578125 263.90625 62.457031 263.261719 65.160156 Z M 263.261719 65.160156 " fill-opacity="1" fill-rule="nonzero"/></g><g clip-path="url(#id16)"><path fill="#000000" d="M 233.945312 64.097656 C 233.953125 64.097656 233.945312 64.105469 233.945312 64.105469 C 233.914062 64.390625 233.808594 64.835938 233.621094 65.429688 C 233.296875 66.4375 232.769531 67.894531 232.128906 69.757812 C 231.5 71.628906 230.761719 73.90625 230.054688 76.570312 C 229.652344 78.070312 229.269531 79.695312 228.933594 81.4375 C 228.65625 82.785156 228.417969 84.199219 228.199219 85.679688 C 227.644531 89.25 227.253906 93.214844 227.191406 97.464844 C 227.132812 101.714844 227.386719 106.25 228.082031 110.914062 C 225.269531 112.5625 222.179688 113.925781 218.902344 114.925781 C 215.632812 115.933594 212.179688 116.566406 208.652344 116.765625 C 205.121094 116.972656 201.636719 116.734375 198.332031 116.082031 C 195.453125 115.355469 192.777344 114.371094 190.253906 113.316406 C 187.734375 112.253906 185.355469 111.117188 183.09375 110.058594 C 180.496094 108.859375 178.003906 107.734375 175.613281 106.84375 C 173.210938 105.957031 170.914062 105.292969 168.691406 104.917969 C 165.199219 104.308594 161.890625 104.410156 159.023438 104.832031 C 155.761719 105.316406 153.65625 106.59375 150.855469 108.175781 C 149.570312 108.890625 145.535156 111.601562 144.097656 109.984375 C 142.503906 108.203125 144.371094 104.449219 144.996094 102.625 C 146.003906 99.636719 146.757812 96.617188 147.132812 93.492188 C 147.902344 87.171875 147.417969 80.652344 145.671875 74.53125 C 145.539062 74.070312 145.375 73.605469 145.171875 73.136719 C 143.742188 69.75 140.855469 66.269531 140.683594 62.835938 C 144.734375 64.582031 147.179688 69.292969 148.671875 73.207031 C 149.617188 75.683594 150.058594 78.316406 150.339844 80.945312 C 150.425781 81.714844 151.59375 89.121094 151.332031 89.28125 C 155.625 86.65625 160.039062 84.101562 165.074219 83.269531 C 174.464844 81.71875 182.742188 86.480469 190.933594 90.296875 C 199.492188 94.285156 207.699219 95.226562 217.046875 94.761719 C 212.535156 97.664062 208.242188 98.8125 202.867188 98.28125 C 198.261719 97.828125 193.515625 96.1875 189.214844 94.554688 C 181.050781 91.445312 173.152344 87.601562 164.261719 87.210938 C 160.171875 87.023438 155.710938 87.554688 152.691406 90.621094 C 151.070312 92.261719 150.101562 94.410156 149.410156 96.585938 C 149.085938 97.625 148.355469 104.53125 147.742188 104.800781 C 149.703125 103.925781 151.765625 103.402344 153.917969 103.125 C 155.246094 102.5625 156.730469 102.046875 158.382812 101.636719 C 161.507812 100.867188 165.207031 100.460938 169.246094 100.898438 C 171.796875 101.183594 174.414062 101.777344 177.058594 102.613281 C 179.703125 103.445312 182.382812 104.515625 185.050781 105.679688 C 187.378906 106.664062 189.738281 107.710938 192.148438 108.675781 C 194.554688 109.628906 197.007812 110.5 199.535156 111.085938 C 202.289062 111.898438 205.191406 112.386719 208.136719 112.5 C 211.082031 112.617188 213.972656 112.363281 216.71875 111.785156 C 219.464844 111.214844 222.0625 110.320312 224.445312 109.152344 C 223.53125 104.695312 223.148438 100.351562 223.183594 96.285156 C 223.210938 92.222656 223.648438 88.417969 224.332031 84.992188 C 225.085938 81.453125 226.054688 78.304688 227.070312 75.609375 C 228.09375 72.914062 229.15625 70.664062 230.125 68.878906 C 230.738281 67.746094 231.304688 66.800781 231.804688 66.039062 C 232.097656 65.597656 232.371094 65.214844 232.605469 64.898438 C 233.261719 64.042969 233.699219 63.652344 233.867188 63.742188 C 233.9375 63.78125 233.960938 63.898438 233.945312 64.097656 Z M 233.945312 64.097656 " fill-opacity="1" fill-rule="nonzero"/></g><path fill="#ffffff" d="M 259.261719 64.269531 C 258.710938 67 257.703125 69.535156 256.402344 71.726562 C 255.109375 73.921875 253.527344 75.777344 251.796875 77.242188 C 250.171875 78.632812 248.417969 79.6875 246.695312 80.464844 C 244.972656 81.25 243.273438 81.75 241.691406 82.042969 C 239.898438 82.382812 238.246094 82.460938 236.804688 82.421875 C 235.367188 82.382812 234.144531 82.230469 233.152344 82.066406 C 232.160156 81.90625 231.402344 81.746094 230.878906 81.652344 C 230.355469 81.566406 230.0625 81.550781 230.015625 81.652344 L 228.933594 81.4375 C 229.269531 79.695312 229.652344 78.070312 230.054688 76.570312 C 230.761719 73.90625 231.5 71.628906 232.128906 69.757812 C 232.769531 67.894531 233.296875 66.4375 233.621094 65.429688 C 233.808594 64.835938 233.914062 64.390625 233.945312 64.105469 C 233.945312 64.105469 233.953125 64.097656 233.945312 64.097656 C 235.082031 62.871094 236.015625 61.457031 236.691406 59.910156 C 237.78125 57.414062 238.328125 53.734375 237.390625 51.480469 C 236.597656 49.5625 236.4375 53.066406 235.519531 55.582031 C 233.753906 60.441406 229.652344 64.128906 224.292969 64.660156 C 219.515625 65.136719 213.726562 62.65625 210.375 59.148438 C 206.726562 65.28125 200.597656 69.65625 193.847656 71.765625 C 183.964844 74.851562 174.601562 71.773438 167.605469 64.921875 C 166.675781 64.011719 164.429688 61.394531 164.03125 61.605469 C 163.398438 61.941406 165.109375 65.230469 165.835938 66.363281 C 171.84375 75.609375 184.425781 79.910156 195.332031 76.570312 C 202.289062 74.4375 207.980469 68.53125 210.535156 61.617188 C 211.367188 63.511719 212.535156 65.082031 213.894531 66.292969 C 217.089844 69.125 220.9375 69.6875 224.910156 69 C 227.46875 68.5625 229.824219 67.53125 231.804688 66.039062 C 231.304688 66.800781 230.738281 67.746094 230.125 68.878906 C 229.15625 70.664062 228.09375 72.914062 227.070312 75.609375 C 226.054688 78.304688 225.085938 81.453125 224.332031 84.992188 C 223.648438 88.417969 223.210938 92.222656 223.183594 96.285156 C 223.148438 100.351562 223.53125 104.695312 224.445312 109.152344 C 222.0625 110.320312 219.464844 111.214844 216.71875 111.785156 C 213.972656 112.363281 211.082031 112.617188 208.136719 112.5 C 205.191406 112.386719 202.289062 111.898438 199.535156 111.085938 C 197.007812 110.5 194.554688 109.628906 192.148438 108.675781 C 189.738281 107.710938 187.378906 106.664062 185.050781 105.679688 C 182.382812 104.515625 179.703125 103.445312 177.058594 102.613281 C 174.414062 101.777344 171.796875 101.183594 169.246094 100.898438 C 165.207031 100.460938 161.507812 100.867188 158.382812 101.636719 C 156.730469 102.046875 155.246094 102.5625 153.917969 103.125 C 151.765625 103.402344 149.703125 103.925781 147.742188 104.800781 C 148.355469 104.53125 149.085938 97.625 149.410156 96.585938 C 150.101562 94.410156 151.070312 92.261719 152.691406 90.621094 C 155.710938 87.554688 160.171875 87.023438 164.261719 87.210938 C 173.152344 87.601562 181.050781 91.445312 189.214844 94.554688 C 193.515625 96.1875 198.261719 97.828125 202.867188 98.28125 C 208.242188 98.8125 212.535156 97.664062 217.046875 94.761719 C 207.699219 95.226562 199.492188 94.285156 190.933594 90.296875 C 182.742188 86.480469 174.464844 81.71875 165.074219 83.269531 C 160.039062 84.101562 155.625 86.65625 151.332031 89.28125 C 151.59375 89.121094 150.425781 81.714844 150.339844 80.945312 C 150.058594 78.316406 149.617188 75.683594 148.671875 73.207031 C 147.179688 69.292969 144.734375 64.582031 140.683594 62.835938 C 140.855469 66.269531 143.742188 69.75 145.171875 73.136719 L 144.441406 73.429688 C 144.289062 73.273438 143.820312 73.238281 143.042969 73.242188 C 142.179688 73.253906 140.933594 73.328125 139.378906 73.289062 C 137.828125 73.253906 135.957031 73.097656 133.882812 72.644531 C 131.8125 72.1875 129.535156 71.433594 127.300781 70.1875 C 125.660156 69.269531 124.03125 68.101562 122.523438 66.660156 C 121.023438 65.222656 119.65625 63.511719 118.570312 61.582031 C 117.078125 58.929688 116.105469 55.8125 115.886719 52.558594 C 115.832031 51.640625 115.832031 50.726562 115.902344 49.824219 C 116.117188 46.621094 117.164062 43.574219 118.671875 40.976562 C 120.179688 38.382812 122.140625 36.257812 124.246094 34.695312 C 126.398438 33.078125 128.730469 32.039062 130.882812 31.386719 C 133.042969 30.730469 135.035156 30.46875 136.6875 30.359375 C 138.34375 30.253906 139.671875 30.308594 140.605469 30.316406 C 141.535156 30.316406 142.074219 30.261719 142.140625 30.046875 C 142.160156 30.007812 142.148438 29.953125 142.132812 29.898438 L 142.789062 30.253906 C 142.789062 30.261719 142.78125 30.261719 142.78125 30.269531 C 141.503906 32.710938 140.640625 34.902344 140.066406 36.71875 C 139.488281 38.542969 139.191406 39.976562 139.050781 40.972656 C 138.910156 41.949219 138.933594 42.480469 139.082031 42.519531 C 139.226562 42.554688 139.480469 42.09375 139.890625 41.207031 C 140.289062 40.324219 140.84375 39.007812 141.640625 37.351562 C 142.441406 35.695312 143.488281 33.703125 144.910156 31.507812 C 146.335938 29.316406 148.128906 26.914062 150.386719 24.507812 C 152.441406 22.324219 154.878906 20.136719 157.746094 18.136719 C 160.609375 16.128906 163.890625 14.316406 167.558594 12.960938 C 171.714844 11.414062 176.359375 10.429688 181.28125 10.238281 C 186.195312 10.042969 191.378906 10.652344 196.421875 12.269531 C 201.007812 13.746094 205.503906 15.996094 209.652344 18.953125 C 213.796875 21.914062 217.570312 25.578125 220.648438 29.832031 C 220.703125 29.898438 220.75 29.96875 220.800781 30.039062 C 224.6875 29.191406 228.722656 29.082031 232.605469 29.613281 C 236.492188 30.144531 240.226562 31.324219 243.574219 33.042969 C 246.988281 34.828125 249.988281 37.265625 252.402344 40.0625 C 254.824219 42.855469 256.6875 46.007812 257.902344 49.253906 C 258.847656 51.78125 259.429688 54.390625 259.652344 56.929688 C 259.871094 59.46875 259.738281 61.941406 259.261719 64.269531 Z M 259.261719 64.269531 " fill-opacity="1" fill-rule="nonzero"/><path fill="#000000" d="M 236.691406 59.910156 C 236.015625 61.457031 235.082031 62.871094 233.945312 64.097656 C 233.953125 64.097656 233.945312 64.105469 233.945312 64.105469 C 233.296875 64.8125 232.585938 65.46875 231.804688 66.039062 C 229.824219 67.53125 227.46875 68.5625 224.910156 69 C 220.9375 69.6875 217.089844 69.125 213.894531 66.292969 C 212.535156 65.082031 211.367188 63.511719 210.535156 61.617188 C 207.980469 68.53125 202.289062 74.4375 195.332031 76.570312 C 184.425781 79.910156 171.84375 75.609375 165.835938 66.363281 C 165.109375 65.230469 163.398438 61.941406 164.03125 61.605469 C 164.429688 61.394531 166.675781 64.011719 167.605469 64.921875 C 174.601562 71.773438 183.964844 74.851562 193.847656 71.765625 C 200.597656 69.65625 206.726562 65.28125 210.375 59.148438 C 213.726562 62.65625 219.515625 65.136719 224.292969 64.660156 C 229.652344 64.128906 233.753906 60.441406 235.519531 55.582031 C 236.4375 53.066406 236.597656 49.5625 237.390625 51.480469 C 238.328125 53.734375 237.78125 57.414062 236.691406 59.910156 Z M 236.691406 59.910156 " fill-opacity="1" fill-rule="nonzero"/><g fill="#ffffff" fill-opacity="1"><g transform="translate(69.402644, 306.012417)"><g><path d="M 10.511719 -0.90625 C 11.140625 -0.90625 11.835938 -1.042969 12.464844 -1.183594 C 15.664062 -2.160156 18.660156 -3.410156 21.375 -5.011719 C 26.386719 -8.007812 29.171875 -11.976562 29.105469 -16.988281 C 29.105469 -21.375 26.386719 -24.578125 21.933594 -26.386719 C 18.449219 -27.710938 14.761719 -28.199219 10.929688 -28.199219 C 9.816406 -28.199219 8.773438 -28.128906 7.660156 -28.058594 C 6.335938 -28.058594 5.359375 -27.363281 5.359375 -26.25 C 5.359375 -24.300781 5.847656 -23.671875 6.265625 -19.84375 C 6.542969 -17.476562 6.753906 -15.109375 6.753906 -12.742188 L 6.683594 -7.867188 C 6.683594 -7.3125 7.03125 -4.59375 7.03125 -4.316406 C 7.242188 -2.089844 8.496094 -0.90625 10.511719 -0.90625 Z M 11.695312 -6.265625 C 11.695312 -7.242188 11.695312 -8.285156 11.695312 -9.328125 C 11.558594 -14.0625 11.488281 -18.800781 10.792969 -23.394531 C 10.722656 -23.882812 10.929688 -24.160156 11.417969 -24.160156 C 15.039062 -24.230469 18.101562 -23.601562 20.679688 -22.28125 C 23.046875 -21.167969 24.089844 -19.632812 24.089844 -17.199219 C 24.089844 -13.578125 22.210938 -10.511719 18.800781 -8.496094 C 16.78125 -7.3125 14.832031 -6.335938 12.53125 -5.710938 C 12.046875 -5.570312 11.765625 -5.777344 11.695312 -6.265625 Z M 11.695312 -6.265625 "/></g></g></g><g fill="#ffffff" fill-opacity="1"><g transform="translate(101.557889, 306.012417)"><g><path d="M 13.925781 1.253906 C 16.78125 1.253906 19.566406 0.488281 20.957031 -0.558594 C 21.445312 -1.042969 21.652344 -1.460938 21.652344 -1.949219 C 21.652344 -3.761719 19.425781 -4.386719 17.128906 -3.34375 C 16.015625 -2.855469 15.179688 -2.714844 14.203125 -2.714844 C 13.4375 -2.714844 12.671875 -2.507812 11.835938 -3.828125 C 11.070312 -5.082031 10.863281 -7.519531 10.652344 -10.164062 L 10.511719 -11.210938 C 10.445312 -11.695312 10.722656 -11.90625 11.140625 -11.976562 L 13.230469 -12.324219 C 15.386719 -12.671875 17.683594 -13.019531 19.214844 -13.4375 C 20.261719 -13.785156 20.886719 -14.414062 20.886719 -15.246094 C 20.886719 -16.710938 19.566406 -17.40625 17.40625 -17.128906 C 16.5 -17.058594 15.179688 -16.847656 13.855469 -16.640625 C 12.878906 -16.570312 11.976562 -16.433594 11.210938 -16.292969 C 10.792969 -16.222656 10.511719 -16.5 10.445312 -16.917969 C 10.304688 -19.078125 10.164062 -22.976562 10.027344 -24.925781 C 10.027344 -25.34375 10.234375 -25.621094 10.652344 -25.691406 C 12.878906 -26.25 13.996094 -26.320312 15.316406 -26.457031 C 16.988281 -26.667969 18.660156 -26.804688 20.332031 -26.734375 C 21.652344 -26.667969 22.769531 -27.292969 22.835938 -28.269531 C 23.046875 -29.730469 21.585938 -30.84375 19.425781 -30.84375 C 16.292969 -30.84375 9.191406 -30.148438 6.894531 -29.382812 C 5.710938 -28.964844 5.152344 -28.199219 5.222656 -27.085938 C 5.222656 -26.597656 5.222656 -26.109375 5.292969 -25.621094 L 5.292969 -24.230469 C 5.292969 -21.933594 5.640625 -20.121094 5.640625 -14.898438 C 5.640625 -12.53125 5.710938 -10.164062 5.847656 -7.726562 C 5.917969 -3.691406 7.378906 -0.765625 10.097656 0.558594 C 10.929688 1.042969 12.253906 1.253906 13.925781 1.253906 Z M 13.925781 1.253906 "/></g></g></g><g fill="#ffffff" fill-opacity="1"><g transform="translate(128.771531, 306.012417)"><g><path d="M 12.601562 -0.695312 C 16.5 -1.042969 19.703125 -1.042969 21.234375 -1.113281 C 22.488281 -1.042969 23.394531 -2.089844 23.394531 -3.273438 C 23.394531 -4.457031 22.488281 -5.917969 20.957031 -5.917969 C 19.496094 -5.917969 15.804688 -5.777344 12.8125 -5.5 C 12.324219 -5.429688 12.113281 -5.640625 12.046875 -6.128906 C 11.628906 -9.328125 11.628906 -12.601562 11.628906 -16.082031 C 11.628906 -20.398438 11.558594 -25.484375 11.417969 -27.222656 C 11.28125 -28.546875 10.863281 -30.078125 8.632812 -30.078125 C 6.613281 -30.078125 6.40625 -28.894531 6.40625 -27.015625 C 6.476562 -23.882812 6.542969 -19.425781 6.542969 -16.363281 C 6.476562 -10.027344 6.683594 -7.796875 6.960938 -5.152344 C 7.378906 -1.671875 9.191406 -0.417969 12.601562 -0.695312 Z M 12.601562 -0.695312 "/></g></g></g><g fill="#ffffff" fill-opacity="1"><g transform="translate(157.168383, 306.012417)"><g><path d="M 10.929688 -28.476562 C 10.511719 -29.3125 9.679688 -29.800781 8.703125 -29.800781 C 7.449219 -29.800781 6.542969 -29.035156 6.542969 -27.851562 L 6.542969 -27.78125 C 6.542969 -27.152344 6.683594 -26.667969 6.753906 -26.039062 L 6.753906 -25.273438 C 6.753906 -24.160156 6.753906 -22.976562 6.683594 -21.792969 C 6.683594 -20.609375 6.613281 -19.425781 6.613281 -18.242188 L 6.40625 -2.855469 C 6.40625 -2.226562 6.40625 -1.949219 6.476562 -1.53125 C 6.683594 -0.558594 7.796875 0.207031 8.980469 0.207031 C 9.746094 0.207031 10.511719 -0.140625 11 -0.695312 C 11.417969 -1.183594 11.417969 -1.742188 11.417969 -2.367188 L 11.417969 -26.109375 C 11.417969 -26.875 11.28125 -27.570312 10.929688 -28.476562 Z M 10.929688 -28.476562 "/></g></g></g><g fill="#ffffff" fill-opacity="1"><g transform="translate(174.846811, 306.012417)"><g><path d="M 18.242188 0.417969 C 22.558594 0.558594 28.546875 -2.925781 28.546875 -5.777344 C 28.546875 -6.960938 27.503906 -7.796875 26.179688 -7.796875 C 25.136719 -7.796875 24.648438 -7.378906 24.160156 -6.753906 C 23.953125 -6.542969 23.601562 -6.195312 23.046875 -5.710938 C 21.585938 -4.316406 19.84375 -3.691406 17.824219 -3.691406 C 12.878906 -3.691406 9.816406 -7.03125 9.816406 -12.601562 C 10.097656 -18.867188 14.273438 -23.464844 19.703125 -23.464844 C 20.609375 -23.464844 21.167969 -23.324219 21.652344 -23.046875 C 22.210938 -22.699219 22.488281 -22.417969 23.046875 -22.140625 C 23.464844 -21.933594 23.953125 -21.722656 24.648438 -21.722656 C 25.832031 -21.722656 27.085938 -22.699219 27.085938 -23.742188 C 27.085938 -25.621094 22.628906 -27.921875 19.425781 -27.851562 C 11.28125 -27.640625 4.804688 -20.886719 4.804688 -12.671875 C 4.804688 -4.664062 9.679688 0.0703125 18.242188 0.417969 Z M 18.242188 0.417969 "/></g></g></g><g fill="#ffffff" fill-opacity="1"><g transform="translate(207.48928, 306.012417)"><g><path d="M 10.929688 -28.476562 C 10.511719 -29.3125 9.679688 -29.800781 8.703125 -29.800781 C 7.449219 -29.800781 6.542969 -29.035156 6.542969 -27.851562 L 6.542969 -27.78125 C 6.542969 -27.152344 6.683594 -26.667969 6.753906 -26.039062 L 6.753906 -25.273438 C 6.753906 -24.160156 6.753906 -22.976562 6.683594 -21.792969 C 6.683594 -20.609375 6.613281 -19.425781 6.613281 -18.242188 L 6.40625 -2.855469 C 6.40625 -2.226562 6.40625 -1.949219 6.476562 -1.53125 C 6.683594 -0.558594 7.796875 0.207031 8.980469 0.207031 C 9.746094 0.207031 10.511719 -0.140625 11 -0.695312 C 11.417969 -1.183594 11.417969 -1.742188 11.417969 -2.367188 L 11.417969 -26.109375 C 11.417969 -26.875 11.28125 -27.570312 10.929688 -28.476562 Z M 10.929688 -28.476562 "/></g></g></g><g fill="#ffffff" fill-opacity="1"><g transform="translate(225.167708, 306.012417)"><g><path d="M 15.875 -1.042969 C 17.335938 -1.042969 19.007812 -1.390625 20.121094 -2.089844 C 22.070312 -3.203125 23.464844 -4.527344 24.300781 -6.128906 C 25.414062 -8.078125 26.179688 -10.097656 26.734375 -12.671875 C 27.503906 -16.222656 27.503906 -19.703125 27.570312 -23.183594 L 27.570312 -25.273438 C 27.570312 -25.34375 27.570312 -25.414062 27.570312 -25.484375 C 27.570312 -25.550781 27.503906 -25.691406 27.503906 -25.761719 C 27.503906 -25.832031 27.570312 -26.039062 27.152344 -26.597656 C 26.804688 -27.152344 26.179688 -27.433594 25.414062 -27.433594 C 24.300781 -27.503906 23.464844 -26.945312 23.183594 -25.96875 C 23.183594 -25.761719 23.117188 -25.691406 23.117188 -25.550781 C 23.046875 -25.136719 22.976562 -24.996094 22.976562 -24.71875 C 22.976562 -23.882812 22.976562 -23.117188 22.90625 -22.28125 L 22.90625 -19.984375 C 22.835938 -17.40625 22.699219 -14.832031 22.070312 -12.394531 C 21.445312 -10.097656 20.75 -7.796875 18.9375 -6.128906 C 17.894531 -5.222656 16.917969 -4.804688 15.945312 -4.804688 C 14.691406 -4.804688 13.578125 -5.5 12.742188 -6.894531 C 11.976562 -8.144531 11.417969 -9.609375 10.929688 -11.558594 C 10.375 -14.203125 10.027344 -17.335938 10.027344 -20.539062 C 9.957031 -22.769531 9.886719 -24.300781 9.746094 -25.761719 C 9.746094 -26.667969 9.679688 -27.085938 9.539062 -27.710938 C 9.261719 -28.617188 8.355469 -29.105469 7.3125 -29.035156 C 6.265625 -29.035156 5.292969 -28.40625 5.082031 -27.433594 C 5.011719 -27.152344 5.011719 -27.015625 5.011719 -26.597656 L 5.011719 -25.761719 C 5.011719 -25.621094 5.011719 -25.550781 5.011719 -25.414062 C 5.011719 -25.136719 5.082031 -24.925781 5.082031 -24.648438 C 5.152344 -24.367188 5.152344 -24.019531 5.222656 -23.601562 C 5.222656 -22.976562 5.292969 -22.351562 5.222656 -21.722656 C 5.152344 -21.027344 5.152344 -20.332031 5.152344 -19.632812 C 5.152344 -16.292969 5.847656 -12.742188 6.824219 -8.84375 C 7.171875 -7.519531 7.726562 -6.265625 8.5625 -4.945312 C 10.234375 -2.4375 12.8125 -1.042969 15.875 -1.042969 Z M 15.875 -1.042969 "/></g></g></g><g fill="#ffffff" fill-opacity="1"><g transform="translate(257.740563, 306.012417)"><g><path d="M 13.855469 0.277344 C 16.222656 0.277344 18.589844 -0.347656 20.539062 -1.53125 C 22.769531 -2.714844 24.160156 -5.222656 24.160156 -7.726562 C 24.160156 -11.90625 21.515625 -14.273438 16.78125 -16.292969 C 13.507812 -17.824219 10.375 -19.078125 10.375 -21.792969 C 10.375 -24.367188 12.464844 -26.039062 16.152344 -26.039062 C 19.914062 -26.039062 19.425781 -23.324219 21.722656 -23.324219 C 22.769531 -23.324219 24.019531 -23.882812 23.953125 -25.34375 C 23.601562 -28.6875 19.773438 -30.007812 16.152344 -30.007812 C 14.898438 -30.007812 13.578125 -29.871094 12.394531 -29.589844 C 8.078125 -28.617188 5.359375 -25.832031 5.359375 -21.652344 C 5.359375 -17.40625 8.496094 -14.480469 13.507812 -12.601562 C 15.945312 -11.628906 19.148438 -9.957031 19.148438 -7.660156 C 19.148438 -4.804688 16.5 -3.691406 13.714844 -3.691406 C 12.253906 -3.691406 11.070312 -4.109375 10.304688 -4.804688 C 9.398438 -5.5 8.632812 -6.195312 7.796875 -7.03125 C 7.171875 -7.726562 6.058594 -8.214844 5.292969 -8.078125 C 5.011719 -7.9375 4.804688 -7.867188 4.59375 -7.660156 C 4.039062 -7.171875 3.828125 -6.542969 3.828125 -5.988281 C 3.828125 -4.175781 5.292969 -3.34375 6.613281 -2.367188 C 8.84375 -0.695312 11.070312 0.277344 13.855469 0.277344 Z M 13.855469 0.277344 "/></g></g></g></svg>